<svg class="topography-shape js-shape" width="100%" height="100%" viewBox="0 0 1200 580" version="1.1" xmlns="http://www.w3.org/2000/svg" xmlns:xlink="http://www.w3.org/1999/xlink">
    <!-- Pierwszy krąg - żółty -->
    <path d="M734.567 34.372c-28.692 61.724-23.266 100.422 16.275 116.094 59.313 23.508 200.347 32.911 259.299 83.906 58.95 50.994 238.697 11.572 269.438-75.95C1310.32 70.9 1365.669-64 1073.808-64c-194.576 0-307.654 32.79-339.24 98.372h-.001z" fill="rgba(249,228,86,1)" fill-rule="nonzero"></path>

    <!-- Dodatkowe warstwy z płynnym przejściem kolorów (od żółtego do fioletowego) -->
    <path d="M734.567 34.372c-28.692 61.724-23.266 100.422 16.275 116.094 59.313 23.508 200.347 32.911 259.299 83.906 58.95 50.994 238.697 11.572 269.438-75.95C1310.32 70.9 1365.669-64 1073.808-64c-194.576 0-307.654 32.79-339.24 98.372h-.001z" fill="rgba(255,210,150,1)" fill-rule="nonzero" transform="translate(-1800, 60) scale(2.8, 2.8) skewX(30)" style="position: relative; z-index: 0;"></path>
    <path d="M734.567 34.372c-28.692 61.724-23.266 100.422 16.275 116.094 59.313 23.508 200.347 32.911 259.299 83.906 58.95 50.994 238.697 11.572 269.438-75.95C1310.32 70.9 1365.669-64 1073.808-64c-194.576 0-307.654 32.79-339.24 98.372h-.001z" fill="rgba(255,195,185,1)" fill-rule="nonzero" transform="translate(-1650, 55) scale(2.65, 2.65) skewX(27.5)" style="position: relative; z-index: 1;"></path>
    <path d="M734.567 34.372c-28.692 61.724-23.266 100.422 16.275 116.094 59.313 23.508 200.347 32.911 259.299 83.906 58.95 50.994 238.697 11.572 269.438-75.95C1310.32 70.9 1365.669-64 1073.808-64c-194.576 0-307.654 32.79-339.24 98.372h-.001z" fill="rgba(255,180,220,1)" fill-rule="nonzero" transform="translate(-1500, 50) scale(2.5, 2.5) skewX(25)" style="position: relative; z-index: 2;"></path>
    <path d="M734.567 34.372c-28.692 61.724-23.266 100.422 16.275 116.094 59.313 23.508 200.347 32.911 259.299 83.906 58.95 50.994 238.697 11.572 269.438-75.95C1310.32 70.9 1365.669-64 1073.808-64c-194.576 0-307.654 32.79-339.24 98.372h-.001z" fill="rgba(255,165,255,1)" fill-rule="nonzero" transform="translate(-1350, 45) scale(2.35, 2.35) skewX(22.5)" style="position: relative; z-index: 3;"></path>
    <path d="M734.567 34.372c-28.692 61.724-23.266 100.422 16.275 116.094 59.313 23.508 200.347 32.911 259.299 83.906 58.95 50.994 238.697 11.572 269.438-75.95C1310.32 70.9 1365.669-64 1073.808-64c-194.576 0-307.654 32.79-339.24 98.372h-.001z" fill="rgba(235,151,255,1)" fill-rule="nonzero" transform="translate(-1200, 40) scale(2.2, 2.2) skewX(20)" style="position: relative; z-index: 4;"></path>
    <path d="M734.567 34.372c-28.692 61.724-23.266 100.422 16.275 116.094 59.313 23.508 200.347 32.911 259.299 83.906 58.95 50.994 238.697 11.572 269.438-75.95C1310.32 70.9 1365.669-64 1073.808-64c-194.576 0-307.654 32.79-339.24 98.372h-.001z" fill="rgba(212,137,239,1)" fill-rule="nonzero" transform="translate(-1050, 35) scale(2.05, 2.05) skewX(17.5)" style="position: relative; z-index: 5;"></path>
    <path d="M734.567 34.372c-28.692 61.724-23.266 100.422 16.275 116.094 59.313 23.508 200.347 32.911 259.299 83.906 58.95 50.994 238.697 11.572 269.438-75.95C1310.32 70.9 1365.669-64 1073.808-64c-194.576 0-307.654 32.79-339.24 98.372h-.001z" fill="rgba(188,123,221,1)" fill-rule="nonzero" transform="translate(-900, 30) scale(1.9, 1.9) skewX(15)" style="position: relative; z-index: 6;"></path>
    <path d="M734.567 34.372c-28.692 61.724-23.266 100.422 16.275 116.094 59.313 23.508 200.347 32.911 259.299 83.906 58.95 50.994 238.697 11.572 269.438-75.95C1310.32 70.9 1365.669-64 1073.808-64c-194.576 0-307.654 32.79-339.24 98.372h-.001z" fill="rgba(164,109,203,1)" fill-rule="nonzero" transform="translate(-750, 25) scale(1.75, 1.75) skewX(12.5)" style="position: relative; z-index: 7;"></path>
    <path d="M734.567 34.372c-28.692 61.724-23.266 100.422 16.275 116.094 59.313 23.508 200.347 32.911 259.299 83.906 58.95 50.994 238.697 11.572 269.438-75.95C1310.32 70.9 1365.669-64 1073.808-64c-194.576 0-307.654 32.79-339.24 98.372h-.001z" fill="rgba(140,95,185,1)" fill-rule="nonzero" transform="translate(-600, 20) scale(1.6, 1.6) skewX(10)" style="position: relative; z-index: 8;"></path>
    <path d="M734.567 34.372c-28.692 61.724-23.266 100.422 16.275 116.094 59.313 23.508 200.347 32.911 259.299 83.906 58.95 50.994 238.697 11.572 269.438-75.95C1310.32 70.9 1365.669-64 1073.808-64c-194.576 0-307.654 32.79-339.24 98.372h-.001z" fill="rgba(116,81,167,1)" fill-rule="nonzero" transform="translate(-450, 15) scale(1.45, 1.45) skewX(7.5)" style="position: relative; z-index: 9;"></path>
    <path d="M734.567 34.372c-28.692 61.724-23.266 100.422 16.275 116.094 59.313 23.508 200.347 32.911 259.299 83.906 58.95 50.994 238.697 11.572 269.438-75.95C1310.32 70.9 1365.669-64 1073.808-64c-194.576 0-307.654 32.79-339.24 98.372h-.001z" fill="rgba(92,67,149,1)" fill-rule="nonzero" transform="translate(-300, 10) scale(1.3, 1.3) skewX(5)" style="position: relative; z-index: 10;"></path>
    <path d="M734.567 34.372c-28.692 61.724-23.266 100.422 16.275 116.094 59.313 23.508 200.347 32.911 259.299 83.906 58.95 50.994 238.697 11.572 269.438-75.95C1310.32 70.9 1365.669-64 1073.808-64c-194.576 0-307.654 32.79-339.24 98.372h-.001z" fill="rgba(68,53,131,1)" fill-rule="nonzero" transform="translate(-150, 5) scale(1.15, 1.15) skewX(2.5)" style="position: relative; z-index: 11;"></path>
    <path d="M734.567 34.372c-28.692 61.724-23.266 100.422 16.275 116.094 59.313 23.508 200.347 32.911 259.299 83.906 58.95 50.994 238.697 11.572 269.438-75.95C1310.32 70.9 1365.669-64 1073.808-64c-194.576 0-307.654 32.79-339.24 98.372h-.001z" fill="rgba(44,39,113,1)" fill-rule="nonzero" transform="translate(0, 0) scale(1, 1) skewX(0)" style="position: relative; z-index: 12;"></path>
</svg>